<html>
<head>
<meta charset="UTF-8">
<meta name="viewport" content="width=device-width, initial-scale=1.0"/>

<style>
.comment
{
    padding-left: 20px;
    margin-top: 4px;
    margin-right: 4px;
    margin-bottom: 4px;
    border: 2px #000 solid;
}
.submission
{
    border: 4px #00f solid;
    padding-left: 20px;
}
.hidden
{
    display: none;
}
</style>
</head>
<body><div class="submission" id="t3_66ode9">
    <p class="userinfo">
        <a href="https://www.reddit.com/u/jodorowsthesky">jodorowsthesky</a>
        <span class="score"> | 14 points</span>
        <span class="timestamp"> | Apr 21 2017 10:32:58</span>
    </p>
    <strong>[MOVIE] Space Raiders (1983) [1080p][x264][1.7GB]</strong>
    <p><p>.nz/#!4yYRFY7J!gWF9BTuvMCFWUqVpwo3ogExPxscWYQeOFY2Exrc0k_Y  </p>
<pre><code>Format                                   : MPEG-4
Format profile                           : Base Media
Codec ID                                 : isom (isom/iso2/avc1/mp41)
File size                                : 1.59 GiB
Duration                                 : 1 h 23 min
Overall bit rate                         : 2 731 kb/s
Movie name                               : Space.Raiders.1983.1080p.BluRay.H264.AAC-RARBG
Encoded date                             : UTC 2016-07-01 09:18:12
Tagged date                              : UTC 2016-07-01 09:18:12
Writing application                      : Lavf56.40.101
Comment                                  : Space.Raiders.1983.1080p.BluRay.H264.AAC-RARBG

Video
ID                                       : 1
Format                                   : AVC
Format/Info                              : Advanced Video Codec
Format profile                           : High@L4.1
Format settings, CABAC                   : Yes
Format settings, ReFrames                : 4 frames
Codec ID                                 : avc1
Codec ID/Info                            : Advanced Video Coding
Duration                                 : 1 h 23 min
Bit rate                                 : 2 500 kb/s
Width                                    : 1 920 pixels
Height                                   : 1 080 pixels
Display aspect ratio                     : 16:9
Frame rate mode                          : Constant
Frame rate                               : 23.976 (23976/1000) FPS
Color space                              : YUV
Chroma subsampling                       : 4:2:0
Bit depth                                : 8 bits
Scan type                                : Progressive
Bits/(Pixel*Frame)                       : 0.050
Stream size                              : 1.45 GiB (92%)
Writing library                          : x264 core 148 r2638M 7599210
Encoding settings                        : cabac=1 / ref=4 / deblock=1:-1:-1 / analyse=0x3:0x113 / me=umh / subme=9 / psy=1 / psy_rd=1.00:0.15 / mixed_ref=1 / me_range=24 / chroma_me=1 / trellis=2 / 8x8dct=1 / cqm=0 / deadzone=21,11 / fast_pskip=1 / chroma_qp_offset=-3 / threads=32 / lookahead_threads=4 / sliced_threads=0 / nr=0 / decimate=1 / interlaced=0 / bluray_compat=0 / constrained_intra=0 / bframes=3 / b_pyramid=2 / b_adapt=2 / b_bias=0 / direct=3 / weightb=1 / open_gop=0 / weightp=2 / keyint=250 / keyint_min=25 / scenecut=40 / intra_refresh=0 / rc_lookahead=50 / rc=2pass / mbtree=1 / bitrate=2500 / ratetol=1.0 / qcomp=0.60 / qpmin=0 / qpmax=69 / qpstep=4 / cplxblur=20.0 / qblur=0.5 / vbv_maxrate=31250 / vbv_bufsize=31250 / nal_hrd=none / filler=0 / ip_ratio=1.40 / aq=3:1.00
Encoded date                             : UTC 2016-07-01 09:18:12
Tagged date                              : UTC 2016-07-01 09:18:12

Audio
ID                                       : 2
Format                                   : AAC
Format/Info                              : Advanced Audio Codec
Format profile                           : LC
Codec ID                                 : 40
Duration                                 : 1 h 23 min
Bit rate mode                            : Constant
Bit rate                                 : 224 kb/s
Channel(s)                               : 2 channels
Channel positions                        : Front: L R
Sampling rate                            : 48.0 kHz
Frame rate                               : 46.875 FPS (1024 spf)
Compression mode                         : Lossy
Stream size                              : 133 MiB (8%)
Language                                 : English
Default                                  : Yes
Alternate group                          : 1
Encoded date                             : UTC 2016-07-01 09:18:12
Tagged date                              : UTC 2016-07-01 09:18:12
</code></pre></p>
    <p class="toolbar">
        <a href="https://www.reddit.com/r/megalinks/comments/66ode9">permalink</a>
    </p>
</div>
<div class="comment" id="t1_dgk0caj">
    <p class="userinfo">
        <a
        class="toggle_hide_button"
        href="javascript:void(0)"
        onclick="toggle_collapse(this.parentElement.parentElement)">[-]
        </a>
        <a href="https://www.reddit.com/u/boltrop">boltrop</a>
        <span class="score"> | 3 points</span>
        <span class="timestamp"> | Apr 21 2017 10:37:08</span>
    </p>
    <div class="collapsible">
        <h3><a href="https://images-na.ssl-images-amazon.com/images/M/MV5BY2EwMTE2MWEtMzMyYi00YzVlLTk3M2MtNzM4MTg1MzZjYTNmXkEyXkFqcGdeQXVyMTQ2MjQyNDc@._V1_.jpg">Space Raiders</a> (1983)</h3>
<p><strong>Genre</strong>: Action, Adventure, Sci-Fi</p>
<p><strong>Rating</strong>:  4.7 (702 votes)</p>
<p><strong>Certification</strong>: PG</p>
<p><strong>Runtime</strong>: 84 min</p>
<hr>
<blockquote>
<p><strong>Director(s)</strong>: <a href="https://www.imdb.com/name/nm0169438/">Howard R. Cohen</a></p>
<p><strong>Writer(s)</strong>: <a href="https://www.imdb.com/name/nm0169438/">Howard R. Cohen</a></p>
<p><strong>Cast</strong>: <a href="https://www.imdb.com/name/nm0250436/">Vince Edwards</a>, <a href="https://www.imdb.com/name/nm0578903/">David Mendenhall</a>, <a href="https://www.imdb.com/name/nm0669448/">Patsy Pease</a>, <a href="https://www.imdb.com/name/nm0160630/">Thom Christopher</a></p>
<p><strong>Plot</strong>: A futuristic, sensitive tale of adventure and confrontation when a 10 year old boy is accidentally kidnapped by a spaceship filled with a motley crew of space pirates.</p>
</blockquote>
<hr>
<p>^This ^summary ^is ^taken ^from <a href="https://www.imdb.com/title/tt0086345/">^imdb.com</a> ^| ^For ^feedback ^or ^suggestions ^contact <a href="http://www.reddit.com/message/compose/?to=indigo6alpha">^/u/indigo6alpha</a></p>
        <p class="toolbar">
            <a href="https://www.reddit.com/r/megalinks/comments/66ode9/_/dgk0caj">permalink</a>
        </p>
        
    </div>
</div>

<div class="comment" id="t1_dgk2yjt">
    <p class="userinfo">
        <a
        class="toggle_hide_button"
        href="javascript:void(0)"
        onclick="toggle_collapse(this.parentElement.parentElement)">[-]
        </a>
        <a href="https://www.reddit.com/u/perrocontodo">perrocontodo</a>
        <span class="score"> | 2 points</span>
        <span class="timestamp"> | Apr 21 2017 12:15:32</span>
    </p>
    <div class="collapsible">
        <p>thanks!!!! shit movie night incoming</p>
        <p class="toolbar">
            <a href="https://www.reddit.com/r/megalinks/comments/66ode9/_/dgk2yjt">permalink</a>
        </p>
        
    </div>
</div>
</body>

<script>
function toggle_collapse(comment_div)
{
    var button = comment_div.getElementsByClassName("toggle_hide_button")[0];
    var collapsible = comment_div.getElementsByClassName("collapsible")[0];
    if (collapsible.classList.contains("hidden"))
    {
        collapsible.classList.remove("hidden");
        button.innerText = "[-]";
    }
    else
    {
        collapsible.classList.add("hidden");
        button.innerText = "[+]";
    }
}
</script>
</html>
